<?xml version="1.0" encoding="iso-8859-1"?>
<!-- Generator: Adobe Illustrator 19.0.0, SVG Export Plug-In . SVG Version: 6.00 Build 0)  -->
<svg version="1.1" id="Capa_1" xmlns="http://www.w3.org/2000/svg" xmlns:xlink="http://www.w3.org/1999/xlink" x="0px" y="0px"
	 viewBox="0 0 512 512" style="enable-background:new 0 0 512 512;" xml:space="preserve">
<g>
	<g>
		<path d="M42.667,0C19.136,0,0,19.136,0,42.667V64c0,23.531,19.136,42.667,42.667,42.667c23.531,0,42.667-19.136,42.667-42.667
			V42.667C85.333,19.136,66.197,0,42.667,0z M64,64c0,11.765-9.568,21.333-21.333,21.333c-11.765,0-21.333-9.568-21.333-21.333
			V42.667c0-11.765,9.568-21.333,21.333-21.333C54.432,21.333,64,30.901,64,42.667V64z"/>
	</g>
</g>
<g>
	<g>
		<path d="M256,0c-23.531,0-42.667,19.136-42.667,42.667V64c0,23.531,19.136,42.667,42.667,42.667S298.667,87.531,298.667,64V42.667
			C298.667,19.136,279.531,0,256,0z M277.333,64c0,11.765-9.568,21.333-21.333,21.333S234.667,75.765,234.667,64V42.667
			c0-11.765,9.568-21.333,21.333-21.333s21.333,9.568,21.333,21.333V64z"/>
	</g>
</g>
<g>
	<g>
		<path d="M256,149.333c-23.531,0-42.667,19.136-42.667,42.667v21.333C213.333,236.864,232.469,256,256,256
			s42.667-19.136,42.667-42.667V192C298.667,168.469,279.531,149.333,256,149.333z M277.333,213.333
			c0,11.765-9.568,21.333-21.333,21.333s-21.333-9.568-21.333-21.333V192c0-11.765,9.568-21.333,21.333-21.333
			s21.333,9.568,21.333,21.333V213.333z"/>
	</g>
</g>
<g>
	<g>
		<path d="M458.667,149.333C435.136,149.333,416,168.469,416,192v21.333C416,236.864,435.136,256,458.667,256
			s42.667-19.136,42.667-42.667V192C501.333,168.469,482.197,149.333,458.667,149.333z M480,213.333
			c0,11.765-9.568,21.333-21.333,21.333s-21.333-9.568-21.333-21.333V192c0-11.765,9.568-21.333,21.333-21.333S480,180.235,480,192
			V213.333z"/>
	</g>
</g>
<g>
	<g>
		<path d="M149.333,0H128c-5.888,0-10.667,4.768-10.667,10.667c0,5.899,4.779,10.667,10.667,10.667h10.667V96
			c0,5.899,4.779,10.667,10.667,10.667S160,101.899,160,96V10.667C160,4.768,155.221,0,149.333,0z"/>
	</g>
</g>
<g>
	<g>
		<path d="M170.667,85.333H128c-5.888,0-10.667,4.768-10.667,10.667s4.779,10.667,10.667,10.667h42.667
			c5.888,0,10.667-4.768,10.667-10.667S176.555,85.333,170.667,85.333z"/>
	</g>
</g>
<g>
	<g>
		<path d="M458.667,0h-21.333c-5.888,0-10.667,4.768-10.667,10.667c0,5.899,4.779,10.667,10.667,10.667H448V96
			c0,5.899,4.779,10.667,10.667,10.667s10.667-4.768,10.667-10.667V10.667C469.333,4.768,464.555,0,458.667,0z"/>
	</g>
</g>
<g>
	<g>
		<path d="M480,85.333h-42.667c-5.888,0-10.667,4.768-10.667,10.667s4.779,10.667,10.667,10.667H480
			c5.888,0,10.667-4.768,10.667-10.667S485.888,85.333,480,85.333z"/>
	</g>
</g>
<g>
	<g>
		<path d="M42.667,149.333H21.333c-5.888,0-10.667,4.768-10.667,10.667s4.779,10.667,10.667,10.667H32v74.667
			C32,251.232,36.779,256,42.667,256s10.667-4.768,10.667-10.667V160C53.333,154.101,48.555,149.333,42.667,149.333z"/>
	</g>
</g>
<g>
	<g>
		<path d="M64,234.667H21.333c-5.888,0-10.667,4.768-10.667,10.667c0,5.899,4.779,10.667,10.667,10.667H64
			c5.888,0,10.667-4.768,10.667-10.667C74.667,239.435,69.888,234.667,64,234.667z"/>
	</g>
</g>
<g>
	<g>
		<path d="M149.333,149.333H128c-5.888,0-10.667,4.768-10.667,10.667s4.779,10.667,10.667,10.667h10.667v74.667
			c0,5.899,4.779,10.667,10.667,10.667S160,251.232,160,245.333V160C160,154.101,155.221,149.333,149.333,149.333z"/>
	</g>
</g>
<g>
	<g>
		<path d="M170.667,234.667H128c-5.888,0-10.667,4.768-10.667,10.667c0,5.899,4.779,10.667,10.667,10.667h42.667
			c5.888,0,10.667-4.768,10.667-10.667C181.333,239.435,176.555,234.667,170.667,234.667z"/>
	</g>
</g>
<g>
	<g>
		<path d="M362.667,149.333h-21.333c-5.888,0-10.667,4.768-10.667,10.667s4.779,10.667,10.667,10.667H352v74.667
			c0,5.899,4.779,10.667,10.667,10.667s10.667-4.768,10.667-10.667V160C373.333,154.101,368.555,149.333,362.667,149.333z"/>
	</g>
</g>
<g>
	<g>
		<path d="M384,234.667h-42.667c-5.888,0-10.667,4.768-10.667,10.667c0,5.899,4.779,10.667,10.667,10.667H384
			c5.888,0,10.667-4.768,10.667-10.667C394.667,239.435,389.888,234.667,384,234.667z"/>
	</g>
</g>
<g>
	<g>
		<path d="M362.667,0h-21.333c-5.888,0-10.667,4.768-10.667,10.667c0,5.899,4.779,10.667,10.667,10.667H352V96
			c0,5.899,4.779,10.667,10.667,10.667s10.667-4.768,10.667-10.667V10.667C373.333,4.768,368.555,0,362.667,0z"/>
	</g>
</g>
<g>
	<g>
		<path d="M384,85.333h-42.667c-5.888,0-10.667,4.768-10.667,10.667s4.779,10.667,10.667,10.667H384
			c5.888,0,10.667-4.768,10.667-10.667S389.888,85.333,384,85.333z"/>
	</g>
</g>
<g>
	<g>
		<path d="M42.667,298.667C19.136,298.667,0,317.803,0,341.333v21.333c0,23.531,19.136,42.667,42.667,42.667
			c23.531,0,42.667-19.136,42.667-42.667v-21.333C85.333,317.803,66.197,298.667,42.667,298.667z M64,362.667
			C64,374.432,54.432,384,42.667,384c-11.765,0-21.333-9.568-21.333-21.333v-21.333c0-11.765,9.568-21.333,21.333-21.333
			C54.432,320,64,329.568,64,341.333V362.667z"/>
	</g>
</g>
<g>
	<g>
		<path d="M256,298.667c-23.531,0-42.667,19.136-42.667,42.667v21.333c0,23.531,19.136,42.667,42.667,42.667
			s42.667-19.136,42.667-42.667v-21.333C298.667,317.803,279.531,298.667,256,298.667z M277.333,362.667
			c0,11.765-9.568,21.333-21.333,21.333s-21.333-9.568-21.333-21.333v-21.333c0-11.765,9.568-21.333,21.333-21.333
			s21.333,9.568,21.333,21.333V362.667z"/>
	</g>
</g>
<g>
	<g>
		<path d="M149.333,298.667H128c-5.888,0-10.667,4.768-10.667,10.667c0,5.899,4.779,10.667,10.667,10.667h10.667v74.667
			c0,5.899,4.779,10.667,10.667,10.667S160,400.565,160,394.667v-85.333C160,303.435,155.221,298.667,149.333,298.667z"/>
	</g>
</g>
<g>
	<g>
		<path d="M170.667,384H128c-5.888,0-10.667,4.768-10.667,10.667s4.779,10.667,10.667,10.667h42.667
			c5.888,0,10.667-4.768,10.667-10.667S176.555,384,170.667,384z"/>
	</g>
</g>
<g>
	<g>
		<path d="M458.667,298.667h-21.333c-5.888,0-10.667,4.768-10.667,10.667c0,5.899,4.779,10.667,10.667,10.667H448v74.667
			c0,5.899,4.779,10.667,10.667,10.667s10.667-4.768,10.667-10.667v-85.333C469.333,303.435,464.555,298.667,458.667,298.667z"/>
	</g>
</g>
<g>
	<g>
		<path d="M480,384h-42.667c-5.888,0-10.667,4.768-10.667,10.667s4.779,10.667,10.667,10.667H480
			c5.888,0,10.667-4.768,10.667-10.667S485.888,384,480,384z"/>
	</g>
</g>
<g>
	<g>
		<path d="M362.667,298.667h-21.333c-5.888,0-10.667,4.768-10.667,10.667c0,5.899,4.779,10.667,10.667,10.667H352v74.667
			c0,5.899,4.779,10.667,10.667,10.667s10.667-4.768,10.667-10.667v-85.333C373.333,303.435,368.555,298.667,362.667,298.667z"/>
	</g>
</g>
<g>
	<g>
		<path d="M384,384h-42.667c-5.888,0-10.667,4.768-10.667,10.667s4.779,10.667,10.667,10.667H384
			c5.888,0,10.667-4.768,10.667-10.667S389.888,384,384,384z"/>
	</g>
</g>
<g>
	<g>
		<path d="M490.667,448H53.333c-1.653,0-3.296,0.384-4.768,1.12L5.899,470.453C2.283,472.267,0,475.957,0,480
			c0,4.043,2.283,7.733,5.899,9.547l42.667,21.333c1.472,0.736,3.115,1.12,4.768,1.12h437.333c11.765,0,21.333-9.568,21.333-21.333
			v-21.333C512,457.568,502.432,448,490.667,448z M490.667,490.667H55.851L34.517,480l21.333-10.667h434.816V490.667z"/>
	</g>
</g>
<g>
	<g>
		<path d="M448,448c-5.888,0-10.667,4.768-10.667,10.667v42.667c0,5.899,4.779,10.667,10.667,10.667
			c5.888,0,10.667-4.768,10.667-10.667v-42.667C458.667,452.768,453.888,448,448,448z"/>
	</g>
</g>
<g>
</g>
<g>
</g>
<g>
</g>
<g>
</g>
<g>
</g>
<g>
</g>
<g>
</g>
<g>
</g>
<g>
</g>
<g>
</g>
<g>
</g>
<g>
</g>
<g>
</g>
<g>
</g>
<g>
</g>
</svg>
