<svg xmlns="http://www.w3.org/2000/svg" xmlns:xlink="http://www.w3.org/1999/xlink" width="28" height="28" viewBox="0 0 28 28">
  <defs>
    <clipPath id="clip-path">
      <circle id="Elipse_1" data-name="Elipse 1" cx="14" cy="14" r="14" transform="translate(609 980)" fill="#19abb7"/>
    </clipPath>
  </defs>
  <g id="Grupo_de_máscara_5" data-name="Grupo de máscara 5" transform="translate(-609 -980)" clip-path="url(#clip-path)">
    <g id="comment" transform="translate(609 980)">
      <path id="Caminho_9" data-name="Caminho 9" d="M14,28A14,14,0,0,0,27.446,10.1a1.167,1.167,0,0,0-2.239.655A11.652,11.652,0,1,1,20.5,4.31a1.167,1.167,0,0,0,1.3-1.935A14,14,0,1,0,14,28Zm0,0" fill="#19abb7"/>
      <path id="Caminho_10" data-name="Caminho 10" d="M26.008,2.675,14,14.683l-3.842-3.841a1.167,1.167,0,1,0-1.65,1.65l4.667,4.667a1.166,1.166,0,0,0,1.65,0L27.658,4.325a1.167,1.167,0,1,0-1.65-1.65Zm0,0" fill="#19abb7"/>
    </g>
  </g>
</svg>
