<svg xmlns="http://www.w3.org/2000/svg" xmlns:xlink="http://www.w3.org/1999/xlink" width="40" height="40" viewBox="0 0 40 40">
  <defs>
    <clipPath id="clip-path">
      <rect id="logo" width="40" height="40" fill="#0a0a0a"/>
    </clipPath>
  </defs>
  <g id="Grupo_de_máscara_2" data-name="Grupo de máscara 2" clip-path="url(#clip-path)">
    <path id="instagram" d="M30.625,40H9.375A9.386,9.386,0,0,1,0,30.625V9.375A9.386,9.386,0,0,1,9.375,0h21.25A9.386,9.386,0,0,1,40,9.375v21.25A9.386,9.386,0,0,1,30.625,40ZM9.375,3.125a6.257,6.257,0,0,0-6.25,6.25v21.25a6.257,6.257,0,0,0,6.25,6.25h21.25a6.257,6.257,0,0,0,6.25-6.25V9.375a6.257,6.257,0,0,0-6.25-6.25ZM31.016,7.031a1.953,1.953,0,1,0,1.953,1.953A1.953,1.953,0,0,0,31.016,7.031ZM20,30.156A10.168,10.168,0,0,1,9.844,20C10.4,6.526,29.6,6.53,30.156,20A10.168,10.168,0,0,1,20,30.156Zm0-17.187A7.039,7.039,0,0,0,12.969,20c.386,9.328,13.678,9.325,14.063,0A7.039,7.039,0,0,0,20,12.969Z" fill="#0a0a0a"/>
  </g>
</svg>
