<svg id="logo-2" data-name="logo" xmlns="http://www.w3.org/2000/svg" xmlns:xlink="http://www.w3.org/1999/xlink" width="40" height="40" viewBox="0 0 40 40">
  <defs>
    <clipPath id="clip-path">
      <rect id="logo" width="40" height="40" fill="#0a0a0a"/>
    </clipPath>
  </defs>
  <g id="Grupo_de_máscara_3" data-name="Grupo de máscara 3" clip-path="url(#clip-path)">
    <g id="twitter">
      <g id="Grupo_15" data-name="Grupo 15">
        <path id="Caminho_5" data-name="Caminho 5" d="M40,7.6a17.1,17.1,0,0,1-4.725,1.3A8.154,8.154,0,0,0,38.882,4.36a16.388,16.388,0,0,1-5.2,1.985A8.2,8.2,0,0,0,19.5,11.953a8.444,8.444,0,0,0,.19,1.87,23.211,23.211,0,0,1-16.9-8.577A8.2,8.2,0,0,0,5.3,16.205,8.1,8.1,0,0,1,1.6,15.2v.09a8.238,8.238,0,0,0,6.57,8.057,8.185,8.185,0,0,1-2.15.27,7.251,7.251,0,0,1-1.552-.14,8.278,8.278,0,0,0,7.662,5.712,16.477,16.477,0,0,1-10.167,3.5A15.359,15.359,0,0,1,0,32.57a23.086,23.086,0,0,0,12.58,3.68c15.09,0,23.34-12.5,23.34-23.335,0-.363-.012-.712-.03-1.06A16.359,16.359,0,0,0,40,7.6Z" fill="#0a0a0a"/>
      </g>
    </g>
  </g>
</svg>
