<?xml version="1.0"?>
<svg xmlns="http://www.w3.org/2000/svg" xmlns:xlink="http://www.w3.org/1999/xlink" xmlns:svgjs="http://svgjs.com/svgjs" version="1.1" width="512" height="512" x="0" y="0" viewBox="0 0 48 48" style="enable-background:new 0 0 512 512" xml:space="preserve" class=""><g><path d="m7.31 42h33.38a2.32 2.32 0 0 0 2.31-2.31v-31.38a2.32 2.32 0 0 0 -2.31-2.31h-33.38a2.32 2.32 0 0 0 -2.31 2.31v31.38a2.32 2.32 0 0 0 2.31 2.31zm0-2a.31.31 0 0 1 -.31-.31v-24.69h9v25zm33.69-.31a.31.31 0 0 1 -.31.31h-22.69v-25h23zm-34-31.38a.31.31 0 0 1 .31-.31h33.38a.31.31 0 0 1 .31.31v4.69h-34z" fill="#ffffff" data-original="#000000" class=""/></g></svg>
