<?xml version="1.0" standalone="no"?>
<!DOCTYPE svg PUBLIC "-//W3C//DTD SVG 20010904//EN"
 "http://www.w3.org/TR/2001/REC-SVG-20010904/DTD/svg10.dtd">
<svg version="1.0" xmlns="http://www.w3.org/2000/svg"
 width="260.000000pt" height="260.000000pt" viewBox="0 0 260.000000 260.000000"
 preserveAspectRatio="xMidYMid meet">
<metadata>
Created by potrace 1.14, written by Peter Selinger 2001-2017
</metadata>
<g transform="translate(0.000000,260.000000) scale(0.100000,-0.100000)"
fill="#000000" stroke="none">
<path d="M1110 1882 c-154 -40 -279 -157 -346 -320 l-23 -57 -51 -6 c-64 -9
-115 -43 -140 -95 l-20 -41 -50 5 c-107 10 -218 -64 -259 -173 -44 -116 -17
-247 65 -330 76 -75 76 -75 638 -75 l491 0 -3 180 -3 180 25 25 c24 24 30 25
156 25 126 0 130 1 120 19 -6 11 -10 88 -10 179 0 159 0 159 -32 223 -38 76
-140 182 -214 221 -104 56 -228 70 -344 40z"/>
<path d="M1740 1501 c-5 -11 -10 -69 -10 -130 0 -149 2 -151 144 -151 58 0
116 4 130 10 l26 10 0 134 c0 113 -2 135 -16 140 -9 3 -71 6 -139 6 -113 0
-125 -2 -135 -19z"/>
<path d="M2080 1285 c-15 -19 -14 -223 2 -242 14 -17 229 -18 246 -1 17 17 17
229 0 246 -19 19 -232 16 -248 -3z"/>
<path d="M1466 1144 c-13 -13 -16 -42 -16 -165 0 -85 5 -159 10 -170 9 -15 22
-19 62 -19 43 0 57 -5 80 -27 l28 -27 28 27 c24 23 36 27 90 27 50 0 63 3 72
19 5 11 10 85 10 169 0 132 -2 151 -18 165 -27 24 -322 25 -346 1z"/>
<path d="M1871 1141 c-18 -33 -13 -106 7 -124 24 -22 114 -23 131 -3 7 9 11
40 9 78 l-3 63 -67 3 c-58 3 -68 0 -77 -17z"/>
<path d="M2278 989 c-21 -12 -26 -107 -6 -127 7 -7 36 -12 65 -12 61 0 74 14
71 80 -1 29 -7 45 -22 56 -24 16 -83 18 -108 3z"/>
<path d="M2026 969 c-23 -18 -26 -27 -26 -88 0 -99 11 -111 110 -111 103 0
110 7 110 109 0 51 -4 82 -12 88 -7 6 -45 13 -84 17 -63 5 -75 3 -98 -15z"/>
<path d="M1874 950 c-6 -6 -8 -27 -5 -48 6 -33 10 -37 39 -40 52 -5 76 30 56
82 -7 18 -74 22 -90 6z"/>
</g>
</svg>
